# xmcd
#
# Track frame offsets: 
#        150
#        9787
#        19951
#        31743
#        45424
#        57997
#        69786
#        79271
#        94236
#        102446
#        116640
#        128170
#        141316
#        155270
#        164193
#        174972
#        186352
#
# Disc length: 2556 seconds
#
# Revision: 0
# Processed by: cddbd v1.5.2PL0 Copyright (c) Steve Scherf et al.
# Submitted via: ExactAudioCopyFreeDBPlugin 1.0
#
DISCID=dc09fa11
DTITLE=Healing Hands Of Time - Willie Nelson
DYEAR=2007
DGENRE=Country
TTITLE0=Ashamed
TTITLE1=Healing Hands Of Time
TTITLE2=Night Life
TTITLE3=Undo The Right
TTITLE4=Any Old Arms Won't Do
TTITLE5=Is There Something On Your Mind
TTITLE6=Building Heartaches
TTITLE7=Face Of A Fighter
TTITLE8=You Wouldn't Cross The Street To Say Goodbye
TTITLE9=Rainy Day Blues
TTITLE10=Touch Me
TTITLE11=You'll Always Have Someone
TTITLE12=Home Is Where You're Happy
TTITLE13=Why Are You Picking On Me
TTITLE14=Blame It On The Time
TTITLE15=I'm Going To Lose A Lot Of Teardrops
TTITLE16=The Ghost
EXTD=
EXTT0=
EXTT1=
EXTT2=
EXTT3=
EXTT4=
EXTT5=
EXTT6=
EXTT7=
EXTT8=
EXTT9=
EXTT10=
EXTT11=
EXTT12=
EXTT13=
EXTT14=
EXTT15=
EXTT16=
PLAYORDER=
